<mxfile host="app.diagrams.net" modified="2023-11-12T13:03:06.719Z" agent="Mozilla/5.0 (Windows NT 10.0; Win64; x64) AppleWebKit/537.36 (KHTML, like Gecko) Chrome/119.0.0.0 Safari/537.36" etag="hkkQK2IGakNMA_z8VZNx" version="22.1.0" type="device">
  <diagram name="Page-1" id="kRHjt9W5k_VU1ETxa26y">
    <mxGraphModel dx="1434" dy="746" grid="1" gridSize="10" guides="1" tooltips="1" connect="1" arrows="1" fold="1" page="1" pageScale="1" pageWidth="827" pageHeight="1169" math="0" shadow="0">
      <root>
        <mxCell id="0" />
        <mxCell id="1" parent="0" />
        <mxCell id="XKS2WSgT-GEAiVNGklcr-1" value="" style="verticalLabelPosition=bottom;verticalAlign=top;html=1;shadow=0;dashed=0;strokeWidth=1;shape=mxgraph.android.phone2;strokeColor=#c0c0c0;" vertex="1" parent="1">
          <mxGeometry x="30" y="300" width="70" height="120" as="geometry" />
        </mxCell>
        <mxCell id="XKS2WSgT-GEAiVNGklcr-2" value="&lt;font style=&quot;font-size: 24px;&quot;&gt;Mobile Station&lt;/font&gt;" style="text;html=1;strokeColor=none;fillColor=none;align=center;verticalAlign=middle;whiteSpace=wrap;rounded=0;" vertex="1" parent="1">
          <mxGeometry x="35" y="340" width="60" height="30" as="geometry" />
        </mxCell>
        <mxCell id="XKS2WSgT-GEAiVNGklcr-9" value="" style="shape=image;html=1;verticalAlign=top;verticalLabelPosition=bottom;labelBackgroundColor=#ffffff;imageAspect=0;aspect=fixed;image=https://cdn1.iconfinder.com/data/icons/iconoir-vol-1/24/antenna-128.png" vertex="1" parent="1">
          <mxGeometry x="316" y="206" width="208" height="208" as="geometry" />
        </mxCell>
        <mxCell id="XKS2WSgT-GEAiVNGklcr-10" value="" style="html=1;whiteSpace=wrap;shape=isoCube2;backgroundOutline=1;isoAngle=15;" vertex="1" parent="1">
          <mxGeometry x="546" y="314" width="90" height="100" as="geometry" />
        </mxCell>
        <mxCell id="XKS2WSgT-GEAiVNGklcr-12" value="" style="endArrow=none;html=1;rounded=0;entryX=0;entryY=0;entryDx=0;entryDy=78.39291168278956;entryPerimeter=0;exitX=0.75;exitY=1;exitDx=0;exitDy=0;" edge="1" parent="1" source="XKS2WSgT-GEAiVNGklcr-9" target="XKS2WSgT-GEAiVNGklcr-10">
          <mxGeometry width="50" height="50" relative="1" as="geometry">
            <mxPoint x="426" y="400" as="sourcePoint" />
            <mxPoint x="476" y="350" as="targetPoint" />
          </mxGeometry>
        </mxCell>
        <mxCell id="XKS2WSgT-GEAiVNGklcr-13" value="&lt;h1&gt;BS Transmitter&lt;/h1&gt;&lt;p&gt;AKA an antenna&lt;/p&gt;" style="text;html=1;strokeColor=none;fillColor=none;spacing=5;spacingTop=-20;whiteSpace=wrap;overflow=hidden;rounded=0;" vertex="1" parent="1">
          <mxGeometry x="306" y="420" width="192" height="80" as="geometry" />
        </mxCell>
        <mxCell id="XKS2WSgT-GEAiVNGklcr-14" value="&lt;h1&gt;BS Controller&lt;/h1&gt;&lt;p&gt;Controls the BS&lt;/p&gt;" style="text;html=1;strokeColor=none;fillColor=none;spacing=5;spacingTop=-20;whiteSpace=wrap;overflow=hidden;rounded=0;" vertex="1" parent="1">
          <mxGeometry x="506" y="414" width="192" height="80" as="geometry" />
        </mxCell>
        <mxCell id="XKS2WSgT-GEAiVNGklcr-15" value="&lt;h1&gt;Base Station (BS)&lt;/h1&gt;&lt;div&gt;Communicate with the User Domain though radio signals&lt;/div&gt;" style="text;html=1;strokeColor=none;fillColor=none;spacing=5;spacingTop=-20;whiteSpace=wrap;overflow=hidden;rounded=0;" vertex="1" parent="1">
          <mxGeometry x="300" y="70" width="240" height="80" as="geometry" />
        </mxCell>
        <mxCell id="XKS2WSgT-GEAiVNGklcr-16" value="&lt;h1&gt;User Domain&lt;/h1&gt;" style="text;html=1;strokeColor=none;fillColor=none;spacing=5;spacingTop=-20;whiteSpace=wrap;overflow=hidden;rounded=0;" vertex="1" parent="1">
          <mxGeometry x="10" y="10" width="190" height="40" as="geometry" />
        </mxCell>
        <mxCell id="XKS2WSgT-GEAiVNGklcr-17" value="&lt;h1&gt;Radio Access Network (RAN)&lt;/h1&gt;" style="text;html=1;strokeColor=none;fillColor=none;spacing=5;spacingTop=-20;whiteSpace=wrap;overflow=hidden;rounded=0;" vertex="1" parent="1">
          <mxGeometry x="280" y="10" width="350" height="40" as="geometry" />
        </mxCell>
        <mxCell id="XKS2WSgT-GEAiVNGklcr-18" value="Hey, SMS !" style="shape=callout;whiteSpace=wrap;html=1;perimeter=calloutPerimeter;size=40;position=0.08;position2=0;" vertex="1" parent="1">
          <mxGeometry x="110" y="220" width="120" height="80" as="geometry" />
        </mxCell>
      </root>
    </mxGraphModel>
  </diagram>
</mxfile>
